<?xml version="1.0" encoding="iso-8859-1"?>
<!-- Generator: Adobe Illustrator 19.0.0, SVG Export Plug-In . SVG Version: 6.00 Build 0)  -->
<svg version="1.1" id="Capa_1" xmlns="http://www.w3.org/2000/svg" xmlns:xlink="http://www.w3.org/1999/xlink" x="0px" y="0px"
	 viewBox="0 0 512 512" style="enable-background:new 0 0 512 512;" xml:space="preserve">
<g>
	<path style="fill:#FFF294;" d="M296,208c4.422,0,8,3.578,8,8h17.743c6.648-12.4,16.944-23.564,31.622-32H244
		c-6.627,0-12,5.373-12,12v0c0,6.627,5.373,12,12,12H296z"/>
	<path style="fill:#FFF294;" d="M327.632,305.89c-0.014-0.019-0.029-0.038-0.043-0.056c-0.389-0.511-0.77-1.028-1.146-1.55
		c-0.056-0.078-0.112-0.156-0.168-0.234c-0.352-0.493-0.698-0.99-1.039-1.493c-0.073-0.107-0.144-0.215-0.216-0.323
		c-0.329-0.492-0.654-0.986-0.972-1.488c-0.069-0.109-0.137-0.221-0.206-0.331c-0.321-0.512-0.639-1.026-0.948-1.549
		c-0.026-0.043-0.05-0.087-0.076-0.131c-0.528-0.896-1.037-1.81-1.531-2.737H304c0,4.422-3.578,8-8,8h-52c-6.627,0-12,5.373-12,12
		c0,6.627,5.373,12,12,12h109.796C343.571,322.346,334.611,315.046,327.632,305.89z"/>
	<path style="fill:#FFF294;" d="M240.802,264H164c-6.627,0-12,5.373-12,12v0c0,6.627,5.373,12,12,12h91.999
		C248.319,282.23,242.783,273.761,240.802,264z"/>
	<path style="fill:#FFF294;" d="M255.999,224H164c-6.627,0-12,5.373-12,12s5.373,12,12,12h76.802
		C242.783,238.239,248.319,229.77,255.999,224z"/>
	<path style="fill:#FFFFFF;" d="M319.805,293.071c-0.198-0.416-0.389-0.839-0.58-1.261c-0.132-0.29-0.265-0.58-0.393-0.873
		c-0.173-0.395-0.341-0.795-0.508-1.195c-0.138-0.33-0.275-0.661-0.409-0.995c-0.154-0.385-0.305-0.773-0.453-1.162
		c-0.137-0.359-0.271-0.721-0.404-1.084c-0.138-0.379-0.274-0.758-0.407-1.141c-0.135-0.389-0.265-0.782-0.394-1.175
		c-0.121-0.367-0.242-0.734-0.358-1.105c-0.135-0.433-0.263-0.872-0.392-1.311c-0.1-0.342-0.204-0.682-0.3-1.027
		c-0.154-0.552-0.298-1.111-0.441-1.671c-0.062-0.242-0.129-0.479-0.189-0.723c-0.195-0.795-0.379-1.598-0.553-2.409
		c-0.061-0.286-0.115-0.578-0.174-0.865c-0.111-0.547-0.222-1.094-0.324-1.649c-0.062-0.338-0.118-0.681-0.176-1.022
		c-0.088-0.514-0.175-1.029-0.254-1.55c-0.055-0.359-0.105-0.722-0.156-1.084c-0.072-0.514-0.141-1.03-0.205-1.551
		c-0.045-0.369-0.088-0.74-0.13-1.112c-0.058-0.526-0.112-1.056-0.162-1.589c-0.035-0.371-0.069-0.742-0.1-1.116
		c-0.045-0.553-0.084-1.112-0.12-1.672c-0.023-0.359-0.049-0.717-0.068-1.08c-0.033-0.618-0.057-1.244-0.08-1.87
		c-0.011-0.31-0.027-0.617-0.035-0.929c-0.025-0.942-0.04-1.891-0.04-2.851c0-13.559,2.996-27.414,9.743-40H304c0,4.422-3.578,8-8,8
		h-40.001c-7.68,5.77-13.216,14.239-15.198,24H272c4.422,0,8,3.578,8,8s-3.578,8-8,8h-31.198c1.982,9.761,7.517,18.23,15.198,24H296
		c4.422,0,8,3.578,8,8h17.287c-0.406-0.762-0.8-1.535-1.182-2.318C320.006,293.478,319.903,293.277,319.805,293.071z"/>
	<path style="fill:#FFCF00;" d="M244,328h-36c-4.422,0-8,3.578-8,8s3.578,8,8,8h208c0.459,0,0.906-0.047,1.344-0.121
		c-22.42-0.793-45.044-5.647-63.548-15.879H244z"/>
	<path style="fill:#FFCF00;" d="M417.265,168.109C416.852,168.044,416.432,168,416,168H208c-4.422,0-8,3.578-8,8
		c0,4.422,3.578,8,8,8h36h109.365C369.233,174.879,390.223,168.952,417.265,168.109z"/>
	<path style="fill:#FF9300;" d="M168,184h8c4.422,0,8-3.578,8-8c0-4.422-3.578-8-8-8h-8c-4.422,0-8,3.578-8,8
		C160,180.422,163.578,184,168,184z"/>
	<path style="fill:#FF9300;" d="M176,328h-8c-4.422,0-8,3.578-8,8s3.578,8,8,8h8c4.422,0,8-3.578,8-8S180.422,328,176,328z"/>
	<path style="fill:#FFCF00;" d="M8,248c-4.422,0-8,3.578-8,8C0,251.582,3.582,248,8,248z"/>
	<path style="fill:#FFCF00;" d="M0,256c0,4.422,3.578,8,8,8C3.582,264,0,260.418,0,256z"/>
	<path style="fill:#FFCF00;" d="M272,264c4.422,0,8-3.578,8-8s-3.578-8-8-8h-31.198H164H80c4.418,0,8,3.582,8,8s-3.582,8-8,8h84
		h76.802H272z"/>
	<path style="fill:#FF9300;" d="M88,224h16c4.422,0,8-3.578,8-8s-3.578-8-8-8H88c-4.422,0-8,3.578-8,8S83.578,224,88,224z"/>
	<path style="fill:#FFCF00;" d="M296,224c4.422,0,8-3.578,8-8s-3.578-8-8-8h-52H136c-4.422,0-8,3.578-8,8s3.578,8,8,8h28h91.999H296
		z"/>
	<path style="fill:#FF9300;" d="M104,288H88c-4.422,0-8,3.578-8,8c0,4.422,3.578,8,8,8h16c4.422,0,8-3.578,8-8
		C112,291.578,108.422,288,104,288z"/>
	<path style="fill:#FFCF00;" d="M296,304c4.422,0,8-3.578,8-8c0-4.422-3.578-8-8-8h-40.001H164h-28c-4.422,0-8,3.578-8,8
		c0,4.422,3.578,8,8,8h108H296z"/>
	<path style="fill:#D49E6C;" d="M431.935,168.362c17.647,1.594,33.791,8.443,46.905,18.932c-1.714-0.126-3.418-0.293-5.16-0.293
		c-73.494,0-99.68,45.461-99.68,88c0,32.22,12.714,54.121,31.4,68.026c-30.733-3.133-60.401-14.37-77.768-37.135
		c6.979,9.156,15.939,16.456,26.164,22.109c18.504,10.232,41.128,15.086,63.548,15.879c2.222,0.079,4.442,0.121,6.656,0.121
		c48.523,0,88-39.477,88-88C512,210.151,476.753,172.387,431.935,168.362z"/>
	<path style="fill:#D49E6C;" d="M424,168c1.184,0,2.361,0.03,3.534,0.077C426.361,168.031,425.184,168,424,168z"/>
	<path style="fill:#D49E6C;" d="M428.066,168.097c1.145,0.053,2.283,0.128,3.416,0.224
		C430.349,168.225,429.21,168.15,428.066,168.097z"/>
	<path style="fill:#D49E6C;" d="M325.236,302.557c0.34,0.503,0.687,1,1.039,1.493C325.923,303.557,325.576,303.06,325.236,302.557z"
		/>
	<path style="fill:#D49E6C;" d="M323.842,300.416c-0.321-0.512-0.639-1.026-0.948-1.549
		C323.203,299.39,323.521,299.904,323.842,300.416z"/>
	<path style="fill:#D49E6C;" d="M325.02,302.235c-0.329-0.491-0.654-0.987-0.972-1.488
		C324.366,301.248,324.691,301.743,325.02,302.235z"/>
	<path style="fill:#D49E6C;" d="M327.589,305.834c-0.389-0.51-0.77-1.028-1.146-1.55C326.818,304.806,327.2,305.323,327.589,305.834
		z"/>
	<path style="fill:#D49E6C;" d="M319.225,291.81c0.191,0.422,0.382,0.845,0.58,1.261
		C319.607,292.655,319.416,292.232,319.225,291.81z"/>
	<path style="fill:#D49E6C;" d="M312.154,261.65c0.02,0.362,0.045,0.72,0.068,1.08C312.199,262.37,312.174,262.012,312.154,261.65z"
		/>
	<path style="fill:#D49E6C;" d="M318.324,289.742c0.167,0.4,0.334,0.8,0.508,1.195C318.659,290.542,318.491,290.142,318.324,289.742
		z"/>
	<path style="fill:#D49E6C;" d="M320.105,293.682c0.382,0.783,0.776,1.556,1.182,2.318c0.494,0.927,1.003,1.841,1.531,2.737
		C321.855,297.103,320.952,295.417,320.105,293.682z"/>
	<path style="fill:#D49E6C;" d="M317.915,288.747c-0.154-0.385-0.305-0.773-0.453-1.162
		C317.61,287.975,317.761,288.363,317.915,288.747z"/>
	<path style="fill:#D49E6C;" d="M312.04,258.85c0.008,0.312,0.024,0.619,0.035,0.929C312.064,259.47,312.048,259.163,312.04,258.85z
		"/>
	<path style="fill:#D49E6C;" d="M312.94,269.769c0.051,0.362,0.101,0.725,0.156,1.084
		C313.041,270.493,312.99,270.131,312.94,269.769z"/>
	<path style="fill:#D49E6C;" d="M312.604,267.106c0.041,0.372,0.084,0.743,0.13,1.112
		C312.689,267.849,312.646,267.478,312.604,267.106z"/>
	<path style="fill:#D49E6C;" d="M313.35,272.402c0.058,0.341,0.114,0.684,0.176,1.022
		C313.464,273.086,313.408,272.743,313.35,272.402z"/>
	<path style="fill:#D49E6C;" d="M312.343,264.402c0.031,0.374,0.065,0.745,0.1,1.116
		C312.408,265.147,312.373,264.776,312.343,264.402z"/>
	<path style="fill:#D49E6C;" d="M314.578,278.349c0.06,0.243,0.127,0.481,0.189,0.723
		C314.704,278.829,314.637,278.592,314.578,278.349z"/>
	<path style="fill:#D49E6C;" d="M313.85,275.074c0.059,0.288,0.113,0.58,0.174,0.865
		C313.963,275.653,313.909,275.362,313.85,275.074z"/>
	<path style="fill:#D49E6C;" d="M316.651,285.36c0.133,0.383,0.269,0.762,0.407,1.141
		C316.92,286.123,316.784,285.743,316.651,285.36z"/>
	<path style="fill:#D49E6C;" d="M315.207,280.742c0.096,0.345,0.2,0.685,0.3,1.027C315.407,281.427,315.304,281.087,315.207,280.742
		z"/>
	<path style="fill:#D49E6C;" d="M315.899,283.08c0.116,0.371,0.237,0.738,0.358,1.105
		C316.137,283.818,316.015,283.451,315.899,283.08z"/>
	<path style="fill:#FF9300;" d="M88,256c0-4.418-3.582-8-8-8H8c-4.418,0-8,3.582-8,8s3.582,8,8,8h72C84.418,264,88,260.418,88,256z"
		/>
	<path style="fill:#B68052;" d="M321.743,216C314.996,228.586,312,242.44,312,256c0,0.96,0.015,1.909,0.04,2.851
		c0.008,0.312,0.024,0.619,0.035,0.929c0.022,0.626,0.046,1.252,0.08,1.87c0.02,0.362,0.045,0.72,0.068,1.08
		c0.036,0.56,0.075,1.119,0.12,1.672c0.031,0.374,0.065,0.745,0.1,1.116c0.05,0.532,0.103,1.062,0.162,1.589
		c0.041,0.372,0.084,0.743,0.13,1.112c0.064,0.52,0.133,1.037,0.205,1.551c0.051,0.362,0.101,0.725,0.156,1.084
		c0.08,0.521,0.166,1.036,0.254,1.55c0.058,0.341,0.114,0.684,0.176,1.022c0.102,0.555,0.212,1.102,0.324,1.649
		c0.059,0.288,0.113,0.58,0.174,0.865c0.174,0.811,0.358,1.615,0.553,2.409c0.06,0.243,0.127,0.481,0.189,0.723
		c0.143,0.56,0.287,1.119,0.441,1.671c0.096,0.345,0.2,0.685,0.3,1.027c0.129,0.439,0.257,0.878,0.392,1.311
		c0.116,0.371,0.237,0.738,0.358,1.105c0.129,0.393,0.259,0.786,0.394,1.175c0.133,0.383,0.269,0.763,0.407,1.141
		c0.132,0.363,0.267,0.725,0.404,1.084c0.149,0.389,0.299,0.777,0.453,1.162c0.134,0.334,0.271,0.665,0.409,0.995
		c0.167,0.4,0.334,0.8,0.508,1.195c0.128,0.293,0.262,0.582,0.393,0.873c0.191,0.422,0.382,0.845,0.58,1.261
		c0.098,0.205,0.201,0.407,0.3,0.611c0.847,1.735,1.75,3.421,2.713,5.055c0.026,0.043,0.05,0.088,0.076,0.131
		c0.309,0.522,0.627,1.037,0.948,1.549c0.069,0.11,0.136,0.221,0.206,0.331c0.318,0.501,0.643,0.997,0.972,1.488
		c0.072,0.107,0.143,0.216,0.216,0.323c0.341,0.503,0.687,1,1.039,1.493c0.056,0.078,0.112,0.156,0.168,0.234
		c0.376,0.522,0.758,1.04,1.146,1.55c0.014,0.019,0.029,0.038,0.043,0.056c17.368,22.765,47.036,34.003,77.768,37.135
		C386.714,329.121,374,307.22,374,275c0-42.539,26.186-88,99.68-88c1.742,0,3.446,0.167,5.16,0.293
		c-13.114-10.489-29.258-17.338-46.905-18.932c-0.151-0.014-0.302-0.027-0.453-0.04c-1.133-0.096-2.271-0.171-3.416-0.224
		c-0.177-0.008-0.355-0.013-0.532-0.02C426.361,168.03,425.184,168,424,168c-2.288,0-4.528,0.041-6.735,0.109
		c-27.042,0.843-48.032,6.77-63.9,15.891C338.687,192.436,328.391,203.6,321.743,216z"/>
</g>
<g>
</g>
<g>
</g>
<g>
</g>
<g>
</g>
<g>
</g>
<g>
</g>
<g>
</g>
<g>
</g>
<g>
</g>
<g>
</g>
<g>
</g>
<g>
</g>
<g>
</g>
<g>
</g>
<g>
</g>
</svg>
