<?xml version="1.0" encoding="iso-8859-1"?>
<!-- Generator: Adobe Illustrator 16.0.0, SVG Export Plug-In . SVG Version: 6.00 Build 0)  -->
<!DOCTYPE svg PUBLIC "-//W3C//DTD SVG 1.1//EN" "http://www.w3.org/Graphics/SVG/1.1/DTD/svg11.dtd">
<svg xmlns="http://www.w3.org/2000/svg" xmlns:xlink="http://www.w3.org/1999/xlink" version="1.1" id="Capa_1" x="0px" y="0px" width="512px" height="512px" viewBox="0 0 485.213 485.212" style="enable-background:new 0 0 485.213 485.212;" xml:space="preserve">
<g>
	<path d="M227.444,257.594c30.056,0,68.205-11.462,93.202-20.288c3.435-5.362,6.898-10.781,10.333-16.288   c-17.917-5.687-34.233-14.426-42.881-24.078c20.05,0,43.534-5.154,64.499-11.135c5.535-9.18,10.897-18.183,16.11-27.008   c-15.966-5.687-30.149-13.74-37.995-22.507c17.413,0,37.52-3.909,56.238-8.855C409.045,89.085,485.212,0,485.212,0   C299.084,62.044,62.045,299.084,0.001,485.212l60.651-30.326c0,0,30.327-74.865,60.653-106.139   c22.712-23.425,82.449-4.737,121.302-15.163c9.769-2.604,26.149-21.203,45.163-47.562   C263.544,281.518,238.848,270.327,227.444,257.594z" fill="#383838"/>
</g>
<g>
</g>
<g>
</g>
<g>
</g>
<g>
</g>
<g>
</g>
<g>
</g>
<g>
</g>
<g>
</g>
<g>
</g>
<g>
</g>
<g>
</g>
<g>
</g>
<g>
</g>
<g>
</g>
<g>
</g>
</svg>
