<?xml version="1.0" encoding="iso-8859-1"?>
<!-- Generator: Adobe Illustrator 19.0.0, SVG Export Plug-In . SVG Version: 6.00 Build 0)  -->
<svg xmlns="http://www.w3.org/2000/svg" xmlns:xlink="http://www.w3.org/1999/xlink" version="1.1" id="Capa_1" x="0px" y="0px" viewBox="0 0 512 512" style="enable-background:new 0 0 512 512;" xml:space="preserve" width="512px" height="512px">
<g>
	<g>
		<path d="M128,0v109.714h18.286V91.429c0-5.056,4.096-9.143,9.143-9.143s9.143,4.087,9.143,9.143v18.286h18.286V73.143    c0-5.056,4.096-9.143,9.143-9.143s9.143,4.087,9.143,9.143v36.571h18.286V91.429c0-5.056,4.096-9.143,9.143-9.143    c5.047,0,9.143,4.087,9.143,9.143v18.286H256V73.143c0-5.056,4.096-9.143,9.143-9.143c5.047,0,9.143,4.087,9.143,9.143v36.571    h18.286V91.429c0-5.056,4.096-9.143,9.143-9.143c5.047,0,9.143,4.087,9.143,9.143v18.286h18.286V73.143    c0-5.056,4.096-9.143,9.143-9.143c5.047,0,9.143,4.087,9.143,9.143v36.571h18.286V91.429c0-5.056,4.096-9.143,9.143-9.143    c5.047,0,9.143,4.087,9.143,9.143v18.286h18.286V73.143c0-5.056,4.096-9.143,9.143-9.143s9.143,4.087,9.143,9.143v36.571h18.286    V91.429c0-5.056,4.096-9.143,9.143-9.143c5.047,0,9.143,4.087,9.143,9.143v18.286h18.286V73.143c0-5.056,4.096-9.143,9.143-9.143    c5.047,0,9.143,4.087,9.143,9.143v36.571H512V0H128z" fill="#383838"/>
	</g>
</g>
<g>
	<g>
		<path d="M73.143,27.429h36.571V0H0v512h109.714v-27.429H73.143c-5.047,0-9.143-4.087-9.143-9.143s4.096-9.143,9.143-9.143h36.571    V448H91.429c-5.047,0-9.143-4.087-9.143-9.143c0-5.056,4.096-9.143,9.143-9.143h18.286v-18.286H73.143    c-5.047,0-9.143-4.087-9.143-9.143c0-5.056,4.096-9.143,9.143-9.143h36.571v-18.286H91.429c-5.047,0-9.143-4.087-9.143-9.143    s4.096-9.143,9.143-9.143h18.286v-18.286H73.143c-5.047,0-9.143-4.087-9.143-9.143S68.096,320,73.143,320h36.571v-18.286H91.429    c-5.047,0-9.143-4.087-9.143-9.143c0-5.056,4.096-9.143,9.143-9.143h18.286v-18.286H73.143c-5.047,0-9.143-4.087-9.143-9.143    c0-5.056,4.096-9.143,9.143-9.143h36.571v-18.286H91.429c-5.047,0-9.143-4.087-9.143-9.143c0-5.056,4.096-9.143,9.143-9.143    h18.286V192H73.143c-5.047,0-9.143-4.087-9.143-9.143c0-5.056,4.096-9.143,9.143-9.143h36.571v-18.286H91.429    c-5.047,0-9.143-4.087-9.143-9.143c0-5.056,4.096-9.143,9.143-9.143h18.286v-18.286H73.143c-5.047,0-9.143-4.087-9.143-9.143    s4.096-9.143,9.143-9.143h36.571V82.286H91.429c-5.047,0-9.143-4.087-9.143-9.143c0-5.056,4.096-9.143,9.143-9.143h18.286V45.714    H73.143c-5.047,0-9.143-4.087-9.143-9.143C64,31.515,68.096,27.429,73.143,27.429z" fill="#383838"/>
	</g>
</g>
<g>
</g>
<g>
</g>
<g>
</g>
<g>
</g>
<g>
</g>
<g>
</g>
<g>
</g>
<g>
</g>
<g>
</g>
<g>
</g>
<g>
</g>
<g>
</g>
<g>
</g>
<g>
</g>
<g>
</g>
</svg>
